<svg width="64" height="64" viewBox="0 0 64 64" fill="none" xmlns="http://www.w3.org/2000/svg">
  <path
    d="M14 14.5C14 12.2 15.6 10.1 18 8.6C20.7 6.8 24.4 5.6 28.6 5.3C37.3 4.7 46.4 8.2 51.3 14.1C53.2 16.5 54.1 18.9 53.8 21.1C53.4 24.5 51.4 27.2 48.2 28.8C45 30.5 40.7 31 36.1 30.6C26.5 29.8 17.5 24.9 14.8 18.2C14.3 17 14 15.7 14 14.5Z"
    fill="#8D4A20"
  />
  <path
    d="M15.8 15.1C17 12.6 19.6 10.6 23.1 9.5C30.6 7.3 39.8 8.1 46.8 11.6C50.2 13.3 52.4 15.8 53.1 18.6C53.5 20 53.4 21.4 52.8 22.6C51.3 25.8 47.2 27.6 42 28C36.9 28.4 30.8 27.4 25.3 24.9C18.6 21.8 14.6 17.7 15.8 15.1Z"
    fill="#A75A2C"
  />
  <ellipse cx="33.6" cy="18.8" rx="18.9" ry="10.9" transform="rotate(9 33.6 18.8)" fill="#B96A38"/>
  <ellipse cx="34.2" cy="16.6" rx="17.3" ry="8.6" transform="rotate(9 34.2 16.6)" fill="#CF8452"/>
  <path d="M31.8 17.2L9.5 55.2" stroke="#6E3216" stroke-width="4.7" stroke-linecap="round"/>
  <path d="M32.1 17.3L12.5 54.2" stroke="#8B431F" stroke-width="2.2" stroke-linecap="round"/>
  <path d="M31.9 17.4C32.7 19.6 33.3 21.9 33.7 24.3" stroke="#6F3317" stroke-width="1.4" stroke-linecap="round"/>
  <path d="M31.9 17.2C28.8 18.8 25.8 20.8 23.1 23.3" stroke="#6F3317" stroke-width="1.2" stroke-linecap="round"/>
  <path d="M31.9 17.2C35.2 18.5 38.6 20.3 41.4 22.6" stroke="#6F3317" stroke-width="1.2" stroke-linecap="round"/>
  <path d="M31.9 17.2C26.8 16.3 21.8 16.1 17.2 16.6" stroke="#6F3317" stroke-width="1.2" stroke-linecap="round"/>
  <path d="M31.9 17.2C37.4 16.6 42.9 16.9 47.7 17.8" stroke="#6F3317" stroke-width="1.2" stroke-linecap="round"/>
  <path d="M31.9 17.1C30.4 14.8 28.7 12.9 26.7 11.2" stroke="#6F3317" stroke-width="1.1" stroke-linecap="round"/>
  <path d="M31.9 17.1C33.8 14.8 36 12.9 38.3 11.5" stroke="#6F3317" stroke-width="1.1" stroke-linecap="round"/>
  <circle cx="31.9" cy="17.1" r="2.2" fill="#7A391A"/>
  <circle cx="31.9" cy="17.1" r="0.9" fill="#D69B66"/>
</svg>
